# xmcd
#
# Track frame offsets: 
#        150
#        28397
#        55802
#        79045
#        90720
#        104837
#        127905
#        152862
#
# Disc length: 2111 seconds
#
# Revision: 3
# Processed by: cddbd v1.5.2PL0 Copyright (c) Steve Scherf et al.
# Submitted via: ExactAudioCopyFreeDBPlugin 1.0
#
DISCID=66083d08
DTITLE=The Marshall Tucker Band - The Marshall Tucker Band
DYEAR=1973
DGENRE=Southern Rock
TTITLE0=Take The Highway
TTITLE1=Can't You See
TTITLE2=Losing You
TTITLE3=Hillbilly Band
TTITLE4=See You Later, I'm Gone
TTITLE5=Ramblin'
TTITLE6=My Jesus Told Me So
TTITLE7=AB's Song
EXTD=
EXTT0=
EXTT1=
EXTT2=
EXTT3=
EXTT4=
EXTT5=
EXTT6=
EXTT7=
PLAYORDER=
